<svg xmlns="http://www.w3.org/2000/svg" version="1.1" xmlns:xlink="http://www.w3.org/1999/xlink" width="512" height="512" x="0" y="0" viewBox="0 0 24 24" style="enable-background:new 0 0 512 512" xml:space="preserve" class=""><g><circle cx="4" cy="6" r="3" fill="#ecf0f1" opacity="1" data-original="#000000" class=""></circle><path d="M7.29 11.07A6.991 6.991 0 0 0 4 17H2a2.006 2.006 0 0 1-2-2v-2a3.009 3.009 0 0 1 3-3h2a3 3 0 0 1 2.29 1.07z" fill="#ecf0f1" opacity="1" data-original="#000000" class=""></path><circle cx="20" cy="6" r="3" fill="#ecf0f1" opacity="1" data-original="#000000" class=""></circle><path d="M24 13v2a2.006 2.006 0 0 1-2 2h-2a6.991 6.991 0 0 0-3.29-5.93A3 3 0 0 1 19 10h2a3.009 3.009 0 0 1 3 3z" fill="#ecf0f1" opacity="1" data-original="#000000" class=""></path><circle cx="12" cy="7" r="4" fill="#ecf0f1" opacity="1" data-original="#000000" class=""></circle><path d="M18 17v1a3.009 3.009 0 0 1-3 3H9a3.009 3.009 0 0 1-3-3v-1a5 5 0 0 1 5-5h2a5 5 0 0 1 5 5z" fill="#ecf0f1" opacity="1" data-original="#000000" class=""></path></g></svg>