<?xml version="1.0" encoding="UTF-8"?><svg id="Layer_1" xmlns="http://www.w3.org/2000/svg" viewBox="0 0 275.01 192.51"><defs><style>.cls-1{fill:#fefefe;}.cls-2{fill:#e70000;}</style></defs><path class="cls-2" d="M269.27,30.06c-3.16-11.83-12.48-21.15-24.31-24.31C223.5,0,137.51,0,137.51,0c0,0-86,0-107.45,5.75-11.83,3.16-21.15,12.48-24.31,24.31C0,51.51,0,96.25,0,96.25c0,0,0,44.75,5.75,66.19,3.16,11.83,12.48,21.15,24.31,24.31,21.45,5.75,107.45,5.75,107.45,5.75,0,0,86,0,107.45-5.75,11.83-3.16,21.15-12.48,24.31-24.31,5.75-21.45,5.75-66.19,5.75-66.19,0,0,0-44.75-5.75-66.19Z"/><polygon class="cls-1" points="110 137.51 181.45 96.26 110 55 110 137.51"/></svg>